<mxfile host="Electron" agent="Mozilla/5.0 (Windows NT 10.0; Win64; x64) AppleWebKit/537.36 (KHTML, like Gecko) draw.io/24.7.8 Chrome/128.0.6613.36 Electron/32.0.1 Safari/537.36" version="24.7.8">
  <diagram name="Страница — 1" id="3fivxmkdsUofwfdl5sbF">
    <mxGraphModel dx="1235" dy="731" grid="1" gridSize="10" guides="1" tooltips="1" connect="1" arrows="1" fold="1" page="1" pageScale="1" pageWidth="827" pageHeight="1169" math="0" shadow="0">
      <root>
        <mxCell id="0" />
        <mxCell id="1" parent="0" />
        <mxCell id="d3rJrZ3qMbu-bM2vV9Hu-45" value="" style="rounded=0;whiteSpace=wrap;html=1;" vertex="1" parent="1">
          <mxGeometry x="20" y="10" width="740" height="350" as="geometry" />
        </mxCell>
        <mxCell id="d3rJrZ3qMbu-bM2vV9Hu-44" value="" style="rounded=0;whiteSpace=wrap;html=1;" vertex="1" parent="1">
          <mxGeometry x="20" y="440" width="540" height="330" as="geometry" />
        </mxCell>
        <mxCell id="d3rJrZ3qMbu-bM2vV9Hu-1" value="Получить сообщение" style="rounded=1;whiteSpace=wrap;html=1;" vertex="1" parent="1">
          <mxGeometry x="310" y="290" width="120" height="60" as="geometry" />
        </mxCell>
        <mxCell id="d3rJrZ3qMbu-bM2vV9Hu-16" style="edgeStyle=orthogonalEdgeStyle;rounded=0;orthogonalLoop=1;jettySize=auto;html=1;entryX=1;entryY=0.5;entryDx=0;entryDy=0;" edge="1" parent="1">
          <mxGeometry relative="1" as="geometry">
            <mxPoint x="550" y="350" as="sourcePoint" />
            <mxPoint x="430.0000000000002" y="480" as="targetPoint" />
            <Array as="points">
              <mxPoint x="540" y="350" />
              <mxPoint x="540" y="480" />
            </Array>
          </mxGeometry>
        </mxCell>
        <mxCell id="d3rJrZ3qMbu-bM2vV9Hu-2" value="Вернуть ответ" style="rounded=1;whiteSpace=wrap;html=1;" vertex="1" parent="1">
          <mxGeometry x="480" y="290" width="120" height="60" as="geometry" />
        </mxCell>
        <mxCell id="d3rJrZ3qMbu-bM2vV9Hu-54" style="edgeStyle=orthogonalEdgeStyle;rounded=0;orthogonalLoop=1;jettySize=auto;html=1;" edge="1" parent="1" source="d3rJrZ3qMbu-bM2vV9Hu-3" target="d3rJrZ3qMbu-bM2vV9Hu-53">
          <mxGeometry relative="1" as="geometry">
            <Array as="points">
              <mxPoint x="90" y="320" />
            </Array>
          </mxGeometry>
        </mxCell>
        <mxCell id="d3rJrZ3qMbu-bM2vV9Hu-55" style="edgeStyle=orthogonalEdgeStyle;rounded=0;orthogonalLoop=1;jettySize=auto;html=1;exitX=0.5;exitY=1;exitDx=0;exitDy=0;entryX=0.5;entryY=0;entryDx=0;entryDy=0;" edge="1" parent="1" source="d3rJrZ3qMbu-bM2vV9Hu-3" target="d3rJrZ3qMbu-bM2vV9Hu-51">
          <mxGeometry relative="1" as="geometry" />
        </mxCell>
        <mxCell id="d3rJrZ3qMbu-bM2vV9Hu-3" value="Вернуть csv" style="rounded=1;whiteSpace=wrap;html=1;" vertex="1" parent="1">
          <mxGeometry x="120" y="290" width="120" height="60" as="geometry" />
        </mxCell>
        <mxCell id="d3rJrZ3qMbu-bM2vV9Hu-9" style="edgeStyle=orthogonalEdgeStyle;rounded=0;orthogonalLoop=1;jettySize=auto;html=1;entryX=0.5;entryY=0;entryDx=0;entryDy=0;" edge="1" parent="1" source="d3rJrZ3qMbu-bM2vV9Hu-4" target="d3rJrZ3qMbu-bM2vV9Hu-1">
          <mxGeometry relative="1" as="geometry" />
        </mxCell>
        <mxCell id="d3rJrZ3qMbu-bM2vV9Hu-26" value="Получает сообщение в текстовом виде" style="edgeLabel;html=1;align=center;verticalAlign=middle;resizable=0;points=[];" vertex="1" connectable="0" parent="d3rJrZ3qMbu-bM2vV9Hu-9">
          <mxGeometry x="0.0176" y="-2" relative="1" as="geometry">
            <mxPoint as="offset" />
          </mxGeometry>
        </mxCell>
        <mxCell id="d3rJrZ3qMbu-bM2vV9Hu-10" style="edgeStyle=orthogonalEdgeStyle;rounded=0;orthogonalLoop=1;jettySize=auto;html=1;exitX=1;exitY=0.5;exitDx=0;exitDy=0;entryX=0.5;entryY=0;entryDx=0;entryDy=0;" edge="1" parent="1" source="d3rJrZ3qMbu-bM2vV9Hu-4" target="d3rJrZ3qMbu-bM2vV9Hu-2">
          <mxGeometry relative="1" as="geometry" />
        </mxCell>
        <mxCell id="d3rJrZ3qMbu-bM2vV9Hu-11" style="edgeStyle=orthogonalEdgeStyle;rounded=0;orthogonalLoop=1;jettySize=auto;html=1;entryX=0.5;entryY=0;entryDx=0;entryDy=0;" edge="1" parent="1" source="d3rJrZ3qMbu-bM2vV9Hu-4" target="d3rJrZ3qMbu-bM2vV9Hu-3">
          <mxGeometry relative="1" as="geometry" />
        </mxCell>
        <mxCell id="d3rJrZ3qMbu-bM2vV9Hu-20" style="edgeStyle=orthogonalEdgeStyle;rounded=0;orthogonalLoop=1;jettySize=auto;html=1;exitX=0.75;exitY=0;exitDx=0;exitDy=0;entryX=0.75;entryY=1;entryDx=0;entryDy=0;" edge="1" parent="1" source="d3rJrZ3qMbu-bM2vV9Hu-4" target="d3rJrZ3qMbu-bM2vV9Hu-12">
          <mxGeometry relative="1" as="geometry" />
        </mxCell>
        <mxCell id="d3rJrZ3qMbu-bM2vV9Hu-21" value="Получает промпт" style="edgeLabel;html=1;align=center;verticalAlign=middle;resizable=0;points=[];" vertex="1" connectable="0" parent="d3rJrZ3qMbu-bM2vV9Hu-20">
          <mxGeometry x="0.1893" y="3" relative="1" as="geometry">
            <mxPoint x="33" as="offset" />
          </mxGeometry>
        </mxCell>
        <mxCell id="d3rJrZ3qMbu-bM2vV9Hu-4" value="API" style="rounded=1;whiteSpace=wrap;html=1;" vertex="1" parent="1">
          <mxGeometry x="310" y="170" width="120" height="60" as="geometry" />
        </mxCell>
        <mxCell id="d3rJrZ3qMbu-bM2vV9Hu-7" style="edgeStyle=orthogonalEdgeStyle;rounded=0;orthogonalLoop=1;jettySize=auto;html=1;" edge="1" parent="1" target="d3rJrZ3qMbu-bM2vV9Hu-1">
          <mxGeometry relative="1" as="geometry">
            <mxPoint x="370" y="450" as="sourcePoint" />
          </mxGeometry>
        </mxCell>
        <mxCell id="d3rJrZ3qMbu-bM2vV9Hu-18" style="edgeStyle=orthogonalEdgeStyle;rounded=0;orthogonalLoop=1;jettySize=auto;html=1;exitX=0.25;exitY=1;exitDx=0;exitDy=0;entryX=0.25;entryY=0;entryDx=0;entryDy=0;" edge="1" parent="1" source="d3rJrZ3qMbu-bM2vV9Hu-12" target="d3rJrZ3qMbu-bM2vV9Hu-4">
          <mxGeometry relative="1" as="geometry" />
        </mxCell>
        <mxCell id="d3rJrZ3qMbu-bM2vV9Hu-19" value="Возвращает обработанные данные" style="edgeLabel;html=1;align=center;verticalAlign=middle;resizable=0;points=[];" vertex="1" connectable="0" parent="d3rJrZ3qMbu-bM2vV9Hu-18">
          <mxGeometry x="-0.1893" y="4" relative="1" as="geometry">
            <mxPoint x="176" y="-93" as="offset" />
          </mxGeometry>
        </mxCell>
        <mxCell id="d3rJrZ3qMbu-bM2vV9Hu-23" style="edgeStyle=orthogonalEdgeStyle;rounded=0;orthogonalLoop=1;jettySize=auto;html=1;exitX=1;exitY=0.75;exitDx=0;exitDy=0;entryX=0;entryY=0.75;entryDx=0;entryDy=0;" edge="1" parent="1" source="d3rJrZ3qMbu-bM2vV9Hu-12" target="d3rJrZ3qMbu-bM2vV9Hu-14">
          <mxGeometry relative="1" as="geometry" />
        </mxCell>
        <mxCell id="d3rJrZ3qMbu-bM2vV9Hu-24" value="Передаёт промпт" style="edgeLabel;html=1;align=center;verticalAlign=middle;resizable=0;points=[];" vertex="1" connectable="0" parent="d3rJrZ3qMbu-bM2vV9Hu-23">
          <mxGeometry x="-0.0908" y="-1" relative="1" as="geometry">
            <mxPoint x="-1" y="14" as="offset" />
          </mxGeometry>
        </mxCell>
        <mxCell id="d3rJrZ3qMbu-bM2vV9Hu-12" value="Бэкэнд" style="rounded=1;whiteSpace=wrap;html=1;" vertex="1" parent="1">
          <mxGeometry x="310" y="30" width="120" height="60" as="geometry" />
        </mxCell>
        <mxCell id="d3rJrZ3qMbu-bM2vV9Hu-22" style="edgeStyle=orthogonalEdgeStyle;rounded=0;orthogonalLoop=1;jettySize=auto;html=1;exitX=0;exitY=0.25;exitDx=0;exitDy=0;entryX=1;entryY=0.25;entryDx=0;entryDy=0;" edge="1" parent="1" source="d3rJrZ3qMbu-bM2vV9Hu-14" target="d3rJrZ3qMbu-bM2vV9Hu-12">
          <mxGeometry relative="1" as="geometry" />
        </mxCell>
        <mxCell id="d3rJrZ3qMbu-bM2vV9Hu-14" value="Модель" style="rounded=1;whiteSpace=wrap;html=1;" vertex="1" parent="1">
          <mxGeometry x="610" y="30" width="120" height="60" as="geometry" />
        </mxCell>
        <mxCell id="d3rJrZ3qMbu-bM2vV9Hu-25" value="Формирует csv и отдаёт в base64" style="text;html=1;align=center;verticalAlign=middle;resizable=0;points=[];autosize=1;strokeColor=none;fillColor=none;" vertex="1" parent="1">
          <mxGeometry x="75" y="178" width="210" height="30" as="geometry" />
        </mxCell>
        <mxCell id="d3rJrZ3qMbu-bM2vV9Hu-27" value="Возвращает ответ в&amp;nbsp;" style="text;html=1;align=center;verticalAlign=middle;resizable=0;points=[];autosize=1;strokeColor=none;fillColor=none;" vertex="1" parent="1">
          <mxGeometry x="440" y="178" width="140" height="30" as="geometry" />
        </mxCell>
        <mxCell id="d3rJrZ3qMbu-bM2vV9Hu-28" value="Чат" style="rounded=1;whiteSpace=wrap;html=1;" vertex="1" parent="1">
          <mxGeometry x="310" y="450" width="120" height="60" as="geometry" />
        </mxCell>
        <mxCell id="d3rJrZ3qMbu-bM2vV9Hu-32" style="edgeStyle=orthogonalEdgeStyle;rounded=0;orthogonalLoop=1;jettySize=auto;html=1;entryX=0.163;entryY=1.011;entryDx=0;entryDy=0;entryPerimeter=0;" edge="1" parent="1" source="d3rJrZ3qMbu-bM2vV9Hu-29" target="d3rJrZ3qMbu-bM2vV9Hu-1">
          <mxGeometry relative="1" as="geometry">
            <Array as="points">
              <mxPoint x="280" y="480" />
              <mxPoint x="280" y="351" />
            </Array>
          </mxGeometry>
        </mxCell>
        <mxCell id="d3rJrZ3qMbu-bM2vV9Hu-29" value="Поле для ввода csv" style="rounded=1;whiteSpace=wrap;html=1;" vertex="1" parent="1">
          <mxGeometry x="165" y="450" width="120" height="60" as="geometry" />
        </mxCell>
        <mxCell id="d3rJrZ3qMbu-bM2vV9Hu-34" style="edgeStyle=orthogonalEdgeStyle;rounded=0;orthogonalLoop=1;jettySize=auto;html=1;entryX=0.5;entryY=1;entryDx=0;entryDy=0;" edge="1" parent="1" source="d3rJrZ3qMbu-bM2vV9Hu-33" target="d3rJrZ3qMbu-bM2vV9Hu-28">
          <mxGeometry relative="1" as="geometry" />
        </mxCell>
        <mxCell id="d3rJrZ3qMbu-bM2vV9Hu-35" style="edgeStyle=orthogonalEdgeStyle;rounded=0;orthogonalLoop=1;jettySize=auto;html=1;entryX=0.5;entryY=1;entryDx=0;entryDy=0;" edge="1" parent="1" source="d3rJrZ3qMbu-bM2vV9Hu-33" target="d3rJrZ3qMbu-bM2vV9Hu-29">
          <mxGeometry relative="1" as="geometry" />
        </mxCell>
        <mxCell id="d3rJrZ3qMbu-bM2vV9Hu-33" value="Страница" style="rounded=1;whiteSpace=wrap;html=1;" vertex="1" parent="1">
          <mxGeometry x="120" y="555" width="120" height="60" as="geometry" />
        </mxCell>
        <mxCell id="d3rJrZ3qMbu-bM2vV9Hu-38" style="edgeStyle=orthogonalEdgeStyle;rounded=0;orthogonalLoop=1;jettySize=auto;html=1;entryX=0.5;entryY=1;entryDx=0;entryDy=0;" edge="1" parent="1" source="d3rJrZ3qMbu-bM2vV9Hu-37" target="d3rJrZ3qMbu-bM2vV9Hu-33">
          <mxGeometry relative="1" as="geometry" />
        </mxCell>
        <mxCell id="d3rJrZ3qMbu-bM2vV9Hu-37" value="Фронтенд" style="rounded=1;whiteSpace=wrap;html=1;" vertex="1" parent="1">
          <mxGeometry x="120" y="660" width="120" height="60" as="geometry" />
        </mxCell>
        <mxCell id="d3rJrZ3qMbu-bM2vV9Hu-47" style="edgeStyle=orthogonalEdgeStyle;rounded=0;orthogonalLoop=1;jettySize=auto;html=1;entryX=1;entryY=0;entryDx=0;entryDy=0;" edge="1" parent="1" source="d3rJrZ3qMbu-bM2vV9Hu-46" target="d3rJrZ3qMbu-bM2vV9Hu-4">
          <mxGeometry relative="1" as="geometry">
            <Array as="points">
              <mxPoint x="690" y="150" />
              <mxPoint x="430" y="150" />
            </Array>
          </mxGeometry>
        </mxCell>
        <mxCell id="d3rJrZ3qMbu-bM2vV9Hu-46" value="Получить csv" style="rounded=1;whiteSpace=wrap;html=1;" vertex="1" parent="1">
          <mxGeometry x="630" y="290" width="120" height="60" as="geometry" />
        </mxCell>
        <mxCell id="d3rJrZ3qMbu-bM2vV9Hu-50" style="edgeStyle=orthogonalEdgeStyle;rounded=0;orthogonalLoop=1;jettySize=auto;html=1;entryX=0.5;entryY=1;entryDx=0;entryDy=0;" edge="1" parent="1" source="d3rJrZ3qMbu-bM2vV9Hu-48" target="d3rJrZ3qMbu-bM2vV9Hu-46">
          <mxGeometry relative="1" as="geometry" />
        </mxCell>
        <mxCell id="d3rJrZ3qMbu-bM2vV9Hu-48" value="Тестовые данные + данные от заказчика" style="rounded=1;whiteSpace=wrap;html=1;" vertex="1" parent="1">
          <mxGeometry x="630" y="430" width="120" height="60" as="geometry" />
        </mxCell>
        <mxCell id="d3rJrZ3qMbu-bM2vV9Hu-51" value="Заказчик" style="rounded=1;whiteSpace=wrap;html=1;" vertex="1" parent="1">
          <mxGeometry x="120" y="370" width="120" height="60" as="geometry" />
        </mxCell>
        <mxCell id="d3rJrZ3qMbu-bM2vV9Hu-53" value="Поле вывода csv&lt;div&gt;(скачать)&lt;/div&gt;" style="rounded=1;whiteSpace=wrap;html=1;" vertex="1" parent="1">
          <mxGeometry x="30" y="450" width="120" height="60" as="geometry" />
        </mxCell>
      </root>
    </mxGraphModel>
  </diagram>
</mxfile>
